PathFileType	4	(X/Y/Z)	/Users/niels/Desktop/University/Third Semester/Perception and Action/Exam/Gymnastics Motion Tracking/Code for Gym Tracking/Analyzed Data/Webcam_Backflip/id5_5_trajectory_Sports2D/id5_5_trajectory_Sports2D_px_person00.trc
DataRate	CameraRate	NumFrames	NumMarkers	Units	OrigDataRate	OrigDataStartFrame	OrigNumFrames
29.774436090225564	29.774436090225564	9	22	m	29.774436090225564	83	133
Frame#	Time	Hip			RHip			RKnee			RAnkle			RBigToe			RSmallToe			RHeel			LHip			LKnee			LAnkle			LBigToe			LSmallToe			LHeel			Neck			Head			Nose			RShoulder			RElbow			RWrist			LShoulder			LElbow			LWrist		
		X1	Y1	Z1	X2	Y2	Z2	X3	Y3	Z3	X4	Y4	Z4	X5	Y5	Z5	X6	Y6	Z6	X7	Y7	Z7	X8	Y8	Z8	X9	Y9	Z9	X10	Y10	Z10	X11	Y11	Z11	X12	Y12	Z12	X13	Y13	Z13	X14	Y14	Z14	X15	Y15	Z15	X16	Y16	Z16	X17	Y17	Z17	X18	Y18	Z18	X19	Y19	Z19	X20	Y20	Z20	X21	Y21	Z21	X22	Y22	Z22
83	2.787626262626263	0.8190085593894156	-0.936400240571692	0.0	0.8102488387154542	-0.9390201659996839	0.0	0.8069762625082012	-1.0647604735614615	0.0	0.7900310376663112	-1.1304441047868803	0.0	0.8243529596893452	-1.1062071726170064	0.0	0.8142871765673683	-1.1135746887969675	0.0	0.8737583953027904	-0.8892433109070771	0.0	0.8266114481742355	-0.9378124934673169	0.0	0.8275851370136893	-1.0603036826875774	0.0	0.8020270627109856	-1.129953750486017	0.0	0.8358490929198159	-1.1292696110622478	0.0	0.8265090175297907	-1.0882147899787595	0.0	0.7858763525092763	-1.0884729986569135	0.0	0.8316769212354553	-0.7239867678295238	0.0	0.8546301842496403	-0.6452732868970336	0.0	0.873941160266582	-0.6894401265906982	0.0	0.8149373343719473	-0.7555065993390585	0.0	0.7952247991277323	-0.8510927601011813	0.0	0.8198816870289609	-0.9408026928103811	0.0	0.8292102558221172	-0.7482125425963632	0.0	0.8147950063085105	-0.8479034503437299	0.0	0.8309477057492959	-0.9271823235752042	0.0
84	2.8212121212121213	0.8224772303760917	-0.9192514875058908	0.0	0.8172754035996662	-0.9217234182457449	0.0	0.8152254556694302	-1.0468522682395098	0.0	0.7928963183288545	-1.119397415735615	0.0	0.8279221453372839	-1.1027851690457817	0.0	0.817775465117859	-1.1104188491629479	0.0	0.8645439982621932	-0.9088087865582807	0.0	0.8264915828611626	-0.9205604395075946	0.0	0.8286859497363186	-1.0424283101162495	0.0	0.8010186851018701	-1.1189702220200575	0.0	0.8386765533460157	-1.125943786607288	0.0	0.8265524165387808	-1.0838831483958848	0.0	0.7836259932893254	-1.0844489273247446	0.0	0.8376167721661879	-0.7080421083078418	0.0	0.8600365312341892	-0.6304058939302177	0.0	0.8784932931961418	-0.6742255357525784	0.0	0.8268818718901144	-0.7393743483946735	0.0	0.8102722592976332	-0.8335685427145877	0.0	0.8383826156511444	-0.9205296272843162	0.0	0.8290582831308478	-0.731830146611026	0.0	0.8103257004311774	-0.831129280796372	0.0	0.825506473332562	-0.9106759153988231	0.0
85	2.85479797979798	0.8267167035467016	-0.8852528197203853	0.0	0.8258543623967203	-0.8872913618392825	0.0	0.8254680061812837	-1.0124685245955114	0.0	0.7955326777006243	-1.097861973922387	0.0	0.830862005748393	-1.0950139602584796	0.0	0.8206784409381279	-1.1019559650724233	0.0	0.8428492487054217	-0.947419804431292	0.0	0.8260530612988002	-0.8863600226451369	0.0	0.828910315728457	-1.0084516519938294	0.0	0.8005323349625357	-1.0973869871596076	0.0	0.8409755935073018	-1.1142540512929688	0.0	0.8274940997471968	-1.0763082649414524	0.0	0.7825218092083017	-1.0750356667794592	0.0	0.8432901446527171	-0.6765509897423185	0.0	0.8650422367116516	-0.5998780693738371	0.0	0.8825078077847159	-0.6437609451632013	0.0	0.839900949393063	-0.7071882504540737	0.0	0.8271675249698988	-0.799665186564753	0.0	0.8584246290039648	-0.8834416067904974	0.0	0.8270583544499756	-0.7008049239148031	0.0	0.8044391042340161	-0.7986063769814715	0.0	0.8174089714867073	-0.8787471254111965	0.0
86	2.8883838383838385	0.8318410217799977	-0.8394056663426787	0.0	0.8359366726947584	-0.8408258927281181	0.0	0.8376019831722907	-0.9657945112490707	0.0	0.7987102597071754	-1.0663698483634645	0.0	0.8329333903401902	-1.0805209606038695	0.0	0.8230508221071022	-1.0856400568059283	0.0	0.8187139840337949	-0.9823459739998402	0.0	0.8258408673867876	-0.8403036118684756	0.0	0.8290655859916031	-0.9626612478252077	0.0	0.8013472556754038	-1.066080499538691	0.0	0.8428525984284807	-1.0932416044022744	0.0	0.8297014163116808	-1.0634291900963957	0.0	0.7835237749467417	-1.0577914193942717	0.0	0.8485548152123635	-0.6337973103943105	0.0	0.8690957245215009	-0.5577801917350917	0.0	0.8857897128087487	-0.6019555986376792	0.0	0.8535822315606787	-0.6632967934205646	0.0	0.8452048049017077	-0.7540473741316635	0.0	0.8790097890425529	-0.8347428710933331	0.0	0.8236772973758768	-0.6594136113060945	0.0	0.798621448784006	-0.7548950947917765	0.0	0.8083441769897731	-0.8360473666466263	0.0
87	2.921969696969697	0.8376872743550827	-0.787264439061461	0.0	0.8470825240746694	-0.7881228677422888	0.0	0.8509785197621061	-0.9121083093438911	0.0	0.8032689715180018	-1.025872783852883	0.0	0.8345037169217204	-1.0570747813609986	0.0	0.8255230574997159	-1.0594949015129282	0.0	0.8010770246634652	-0.9951282152655643	0.0	0.8263063783861849	-0.7881288753907811	0.0	0.8297843207546621	-0.9102578589014811	0.0	0.8040961622976989	-1.0262792064013977	0.0	0.8450393529630162	-1.0632101554790832	0.0	0.8334271507943406	-1.0428311460666293	0.0	0.7874888332885426	-1.0309239032963997	0.0	0.8533719940926561	-0.5848735213303967	0.0	0.8719078959991463	-0.50905195560266	0.0	0.888143184038246	-0.5534913145112056	0.0	0.8675220841071262	-0.6129338788887355	0.0	0.8637427962862784	-0.7022328265592229	0.0	0.899006481653701	-0.7803256239699682	0.0	0.8197730686097534	-0.6123725711902644	0.0	0.7942915417261991	-0.7052469497854614	0.0	0.8008981001360465	-0.7875524768354483	0.0
88	2.9555555555555557	0.8440409592649946	-0.7336322187626931	0.0	0.8585735872121019	-0.7342110788597658	0.0	0.8644637784354833	-0.856565982148009	0.0	0.8097065795361755	-0.9784980652838339	0.0	0.8363083662334859	-1.0241228540530782	0.0	0.8290511089066954	-1.0236674726424413	0.0	0.7935758467353087	-0.981154222408555	0.0	0.8278268737024215	-0.734719715963892	0.0	0.8315361275722479	-0.8561676778610835	0.0	0.8090526875254738	-0.9802075660507245	0.0	0.8483991144680005	-1.0255316387608617	0.0	0.838527474243366	-1.013374593528842	0.0	0.7948373250201487	-0.9949627956059696	0.0	0.8578132598774777	-0.5344856488829204	0.0	0.8735817606175917	-0.4584701319275362	0.0	0.8893203157666948	-0.5028253430679632	0.0	0.8812764605388871	-0.5609800175455755	0.0	0.8822352773127382	-0.6492925172333962	0.0	0.9172547476365286	-0.7253151459173923	0.0	0.816382842778146	-0.5638773460700266	0.0	0.7922273821471436	-0.6543292435421623	0.0	0.7968763508757298	-0.7375089194067829	0.0
89	2.989141414141414	0.8507696255816578	-0.681974479971897	0.0	0.8697363216450787	-0.6825554138837899	0.0	0.8768306873618972	-0.8032040044093122	0.0	0.8180962948815083	-0.9277329706305468	0.0	0.8388406758609983	-0.983446470014092	0.0	0.8342734304942746	-0.9807083898415367	0.0	0.7956361326747247	-0.9464374632918503	0.0	0.8305747884782866	-0.6833661521308695	0.0	0.8345328292324827	-0.8041999256808737	0.0	0.816148250232389	-0.9313683332271288	0.0	0.8531946860018854	-0.9825400215250664	0.0	0.8443826159992807	-0.9763562375966242	0.0	0.8054027929184097	-0.9530740619617254	0.0	0.8620332962552613	-0.4861144986708488	0.0	0.87448281725005	-0.4097910852413267	0.0	0.889036677501916	-0.4534054236674609	0.0	0.8944176651808645	-0.5111550481017655	0.0	0.9002417566534263	-0.5989516762466225	0.0	0.9329882196969852	-0.6732628639326245	0.0	0.8143878445590987	-0.5170082039194629	0.0	0.7925951493231074	-0.6054467107537186	0.0	0.7964841644089172	-0.6889507094015512	0.0
90	3.022727272727273	0.8578698993103582	-0.634372600739316	0.0	0.8803182708727413	-0.6349953191065593	0.0	0.8872820258518938	-0.7544570763747652	0.0	0.8282937137513317	-0.8773233381750393	0.0	0.8420979346885871	-0.9383900555005026	0.0	0.8411944891147115	-0.9343662151994491	0.0	0.8049506035403028	-0.9005381231699068	0.0	0.8344881638287222	-0.6358191571276302	0.0	0.8387063753876864	-0.7566911712740219	0.0	0.8251288686072249	-0.8836369830722417	0.0	0.858953982592982	-0.9374193806161631	0.0	0.8502493432617686	-0.9350957775152052	0.0	0.8185587481377108	-0.9095358883515476	0.0	0.8662175245601227	-0.44170925474620454	0.0	0.8749992416499643	-0.3652381367365553	0.0	0.8872230471480831	-0.40736993406794547	0.0	0.9066275526194886	-0.4657748590085618	0.0	0.9173836226844828	-0.5532555694536988	0.0	0.9460861940379052	-0.6260653251388195	0.0	0.8143130238863255	-0.4735290894345032	0.0	0.7952532124464772	-0.5604584872246371	0.0	0.7989338068330402	-0.6436575223322395	0.0
91	3.0563131313131313	0.8654795824144771	-0.5917863225899755	0.0	0.8905334290716458	-0.5922128944920836	0.0	0.8956830187314843	-0.71129625834117	0.0	0.8401382800387942	-0.8300943915917257	0.0	0.8460830663188623	-0.8925380253435724	0.0	0.8496207603459017	-0.8881691695688737	0.0	0.8190873601416424	-0.8518952241251408	0.0	0.8394736150970563	-0.5928146263245662	0.0	0.8439253069878841	-0.7146582162552129	0.0	0.835680475934337	-0.8400246035461376	0.0	0.8649865703885276	-0.8934723662823597	0.0	0.8557380282415155	-0.8934210014163398	0.0	0.833369941969284	-0.8678415124452254	0.0	0.8705430661032096	-0.40199294840384175	0.0	0.875433001308723	-0.3256982697552244	0.0	0.8843051533974009	-0.3658830727614331	0.0	0.9177130103015537	-0.42588210053784903	0.0	0.9333103639815611	-0.5128005138387537	0.0	0.95690022340545	-0.5843626942625431	0.0	0.8163584352832257	-0.4340913706484773	0.0	0.7999506916410271	-0.5201617779144784	0.0	0.8032751542823974	-0.6024658475637745	0.0
